<mxfile host="app.diagrams.net" agent="Mozilla/5.0 (X11; Linux x86_64) AppleWebKit/537.36 (KHTML, like Gecko) Chrome/135.0.0.0 Safari/537.36" version="26.2.13">
  <diagram name="Página-1" id="rm_yWL_1SSwXxQFNDFBa">
    <mxGraphModel dx="2891" dy="1741" grid="1" gridSize="10" guides="1" tooltips="1" connect="1" arrows="1" fold="1" page="1" pageScale="1" pageWidth="827" pageHeight="1169" math="0" shadow="0">
      <root>
        <mxCell id="0" />
        <mxCell id="1" parent="0" />
        <mxCell id="K9anjrJY7nX9ey3RRAPb-7" style="rounded=0;orthogonalLoop=1;jettySize=auto;html=1;endArrow=none;endFill=0;" parent="1" source="VNDCdI_-xY6bEtLImfmW-1" target="K9anjrJY7nX9ey3RRAPb-5" edge="1">
          <mxGeometry relative="1" as="geometry" />
        </mxCell>
        <mxCell id="VNDCdI_-xY6bEtLImfmW-1" value="Destinatário" style="shape=umlActor;verticalLabelPosition=bottom;verticalAlign=top;html=1;outlineConnect=0;fillColor=#d5e8d4;strokeColor=#82b366;" parent="1" vertex="1">
          <mxGeometry x="-534" y="232.5" width="30" height="60" as="geometry" />
        </mxCell>
        <mxCell id="VNDCdI_-xY6bEtLImfmW-2" value="Rastreia&lt;br&gt;Embarcação da Encomenda" style="ellipse;whiteSpace=wrap;html=1;" parent="1" vertex="1">
          <mxGeometry x="-334" y="285.5" width="120" height="80" as="geometry" />
        </mxCell>
        <mxCell id="VNDCdI_-xY6bEtLImfmW-4" value="Proprietario da&lt;br&gt;Embarcação" style="shape=umlActor;verticalLabelPosition=bottom;verticalAlign=top;html=1;outlineConnect=0;fillColor=#ffe6cc;strokeColor=#d79b00;" parent="1" vertex="1">
          <mxGeometry x="-54" y="232.5" width="30" height="60" as="geometry" />
        </mxCell>
        <mxCell id="VNDCdI_-xY6bEtLImfmW-5" value="Uma aplicação de rastreio de encomenda por embarcação&amp;nbsp;" style="text;html=1;align=center;verticalAlign=middle;whiteSpace=wrap;rounded=0;shadow=1;" parent="1" vertex="1">
          <mxGeometry x="-963.75" y="-1060" width="180" height="30" as="geometry" />
        </mxCell>
        <mxCell id="VNDCdI_-xY6bEtLImfmW-6" value="Nome: CapDex" style="text;html=1;align=center;verticalAlign=middle;whiteSpace=wrap;rounded=0;" parent="1" vertex="1">
          <mxGeometry x="-919.75" y="-1030" width="92" height="30" as="geometry" />
        </mxCell>
        <mxCell id="VNDCdI_-xY6bEtLImfmW-8" value="Manter Usuarios" style="ellipse;whiteSpace=wrap;html=1;" parent="1" vertex="1">
          <mxGeometry x="-334" y="185.5" width="120" height="97" as="geometry" />
        </mxCell>
        <mxCell id="VNDCdI_-xY6bEtLImfmW-9" value="Notifica situação" style="ellipse;whiteSpace=wrap;html=1;fillColor=#e1d5e7;strokeColor=#9673a6;" parent="1" vertex="1">
          <mxGeometry x="-334" y="412.5" width="120" height="80" as="geometry" />
        </mxCell>
        <mxCell id="VNDCdI_-xY6bEtLImfmW-10" value="Manter Cadastro de Embarcação" style="ellipse;whiteSpace=wrap;html=1;" parent="1" vertex="1">
          <mxGeometry x="-334" y="82.5" width="120" height="80" as="geometry" />
        </mxCell>
        <mxCell id="K9anjrJY7nX9ey3RRAPb-11" style="rounded=0;orthogonalLoop=1;jettySize=auto;html=1;" parent="1" source="VNDCdI_-xY6bEtLImfmW-11" target="K9anjrJY7nX9ey3RRAPb-8" edge="1">
          <mxGeometry relative="1" as="geometry" />
        </mxCell>
        <mxCell id="VNDCdI_-xY6bEtLImfmW-11" value="Sistema" style="shape=umlActor;verticalLabelPosition=bottom;verticalAlign=top;html=1;outlineConnect=0;fillColor=#e1d5e7;strokeColor=#9673a6;" parent="1" vertex="1">
          <mxGeometry x="-294" y="552.5" width="30" height="60" as="geometry" />
        </mxCell>
        <mxCell id="oR66MvjElHhKDxxH5Cwq-1" value="" style="endArrow=none;html=1;rounded=0;" parent="1" source="VNDCdI_-xY6bEtLImfmW-8" target="VNDCdI_-xY6bEtLImfmW-4" edge="1">
          <mxGeometry width="50" height="50" relative="1" as="geometry">
            <mxPoint x="-134" y="452.5" as="sourcePoint" />
            <mxPoint x="-84" y="402.5" as="targetPoint" />
          </mxGeometry>
        </mxCell>
        <mxCell id="oR66MvjElHhKDxxH5Cwq-2" value="" style="endArrow=none;html=1;rounded=0;" parent="1" source="VNDCdI_-xY6bEtLImfmW-2" target="VNDCdI_-xY6bEtLImfmW-4" edge="1">
          <mxGeometry width="50" height="50" relative="1" as="geometry">
            <mxPoint x="-206" y="244.5" as="sourcePoint" />
            <mxPoint x="-44" y="270.5" as="targetPoint" />
          </mxGeometry>
        </mxCell>
        <mxCell id="oR66MvjElHhKDxxH5Cwq-6" value="" style="endArrow=classic;html=1;rounded=0;" parent="1" source="VNDCdI_-xY6bEtLImfmW-1" target="VNDCdI_-xY6bEtLImfmW-8" edge="1">
          <mxGeometry width="50" height="50" relative="1" as="geometry">
            <mxPoint x="-504" y="452.5" as="sourcePoint" />
            <mxPoint x="-454" y="402.5" as="targetPoint" />
          </mxGeometry>
        </mxCell>
        <mxCell id="oR66MvjElHhKDxxH5Cwq-7" value="" style="endArrow=classic;html=1;rounded=0;" parent="1" source="VNDCdI_-xY6bEtLImfmW-1" target="VNDCdI_-xY6bEtLImfmW-2" edge="1">
          <mxGeometry width="50" height="50" relative="1" as="geometry">
            <mxPoint x="-494" y="270.5" as="sourcePoint" />
            <mxPoint x="-323" y="244.5" as="targetPoint" />
          </mxGeometry>
        </mxCell>
        <mxCell id="oR66MvjElHhKDxxH5Cwq-8" value="" style="endArrow=classic;html=1;rounded=0;" parent="1" source="VNDCdI_-xY6bEtLImfmW-4" target="VNDCdI_-xY6bEtLImfmW-10" edge="1">
          <mxGeometry width="50" height="50" relative="1" as="geometry">
            <mxPoint x="-404" y="212.5" as="sourcePoint" />
            <mxPoint x="-354" y="162.5" as="targetPoint" />
          </mxGeometry>
        </mxCell>
        <mxCell id="oR66MvjElHhKDxxH5Cwq-9" value="" style="endArrow=classic;html=1;rounded=0;" parent="1" source="VNDCdI_-xY6bEtLImfmW-11" target="VNDCdI_-xY6bEtLImfmW-9" edge="1">
          <mxGeometry width="50" height="50" relative="1" as="geometry">
            <mxPoint x="-394" y="602.5" as="sourcePoint" />
            <mxPoint x="-344" y="552.5" as="targetPoint" />
          </mxGeometry>
        </mxCell>
        <mxCell id="oR66MvjElHhKDxxH5Cwq-10" value="" style="endArrow=none;html=1;rounded=0;" parent="1" source="VNDCdI_-xY6bEtLImfmW-9" target="VNDCdI_-xY6bEtLImfmW-1" edge="1">
          <mxGeometry width="50" height="50" relative="1" as="geometry">
            <mxPoint x="-424" y="442.5" as="sourcePoint" />
            <mxPoint x="-374" y="392.5" as="targetPoint" />
          </mxGeometry>
        </mxCell>
        <mxCell id="oR66MvjElHhKDxxH5Cwq-11" value="Status: V2 Concluído" style="text;html=1;align=center;verticalAlign=middle;whiteSpace=wrap;rounded=0;" parent="1" vertex="1">
          <mxGeometry x="-961.25" y="-990" width="175" height="30" as="geometry" />
        </mxCell>
        <mxCell id="oR66MvjElHhKDxxH5Cwq-12" value="CASO DE USO 001: Geral" style="text;html=1;align=center;verticalAlign=middle;whiteSpace=wrap;rounded=0;fillColor=#f5f5f5;fontColor=#333333;strokeColor=#666666;" parent="1" vertex="1">
          <mxGeometry x="-453.75" y="-990" width="181" height="30" as="geometry" />
        </mxCell>
        <mxCell id="oR66MvjElHhKDxxH5Cwq-13" value="Lista de embarcações e pesquisa" style="text;html=1;align=center;verticalAlign=middle;whiteSpace=wrap;rounded=0;" parent="1" vertex="1">
          <mxGeometry x="-454" y="172.5" width="120" height="30" as="geometry" />
        </mxCell>
        <mxCell id="K9anjrJY7nX9ey3RRAPb-6" value="" style="edgeStyle=orthogonalEdgeStyle;rounded=0;orthogonalLoop=1;jettySize=auto;html=1;" parent="1" source="K9anjrJY7nX9ey3RRAPb-4" target="K9anjrJY7nX9ey3RRAPb-5" edge="1">
          <mxGeometry relative="1" as="geometry" />
        </mxCell>
        <mxCell id="K9anjrJY7nX9ey3RRAPb-4" value="Remetente" style="shape=umlActor;verticalLabelPosition=bottom;verticalAlign=top;html=1;outlineConnect=0;fillColor=#f8cecc;strokeColor=#b85450;" parent="1" vertex="1">
          <mxGeometry x="-773" y="342.5" width="30" height="60" as="geometry" />
        </mxCell>
        <mxCell id="K9anjrJY7nX9ey3RRAPb-9" value="" style="edgeStyle=orthogonalEdgeStyle;rounded=0;orthogonalLoop=1;jettySize=auto;html=1;" parent="1" source="K9anjrJY7nX9ey3RRAPb-5" target="K9anjrJY7nX9ey3RRAPb-8" edge="1">
          <mxGeometry relative="1" as="geometry" />
        </mxCell>
        <mxCell id="K9anjrJY7nX9ey3RRAPb-10" value="&amp;lt;&amp;lt;extends&amp;gt;&amp;gt;" style="edgeLabel;html=1;align=center;verticalAlign=middle;resizable=0;points=[];" parent="K9anjrJY7nX9ey3RRAPb-9" vertex="1" connectable="0">
          <mxGeometry x="-0.0333" relative="1" as="geometry">
            <mxPoint as="offset" />
          </mxGeometry>
        </mxCell>
        <mxCell id="K9anjrJY7nX9ey3RRAPb-5" value="" style="ellipse;whiteSpace=wrap;html=1;fillColor=#f8cecc;strokeColor=#b85450;" parent="1" vertex="1">
          <mxGeometry x="-703" y="332.5" width="120" height="80" as="geometry" />
        </mxCell>
        <mxCell id="K9anjrJY7nX9ey3RRAPb-8" value="Codigo de Emcomenda para o Destinatario" style="ellipse;whiteSpace=wrap;html=1;fillColor=#e1d5e7;strokeColor=#9673a6;" parent="1" vertex="1">
          <mxGeometry x="-703" y="472.5" width="120" height="80" as="geometry" />
        </mxCell>
        <mxCell id="Dbd8FwvNTRP5J6jHafj4-1" value="Criar Conta" style="ellipse;whiteSpace=wrap;html=1;fillColor=#f5f5f5;gradientColor=#b3b3b3;strokeColor=#666666;" parent="1" vertex="1">
          <mxGeometry x="-434.25" y="-633.25" width="100" height="60" as="geometry" />
        </mxCell>
        <mxCell id="e4peXhRiPMKvvh6ofRs6-2" style="rounded=0;orthogonalLoop=1;jettySize=auto;html=1;" parent="1" source="Dbd8FwvNTRP5J6jHafj4-2" target="e4peXhRiPMKvvh6ofRs6-1" edge="1">
          <mxGeometry relative="1" as="geometry" />
        </mxCell>
        <mxCell id="GhQ1ud3WlhMWC2dmbdbF-37" style="rounded=0;orthogonalLoop=1;jettySize=auto;html=1;" parent="1" source="Dbd8FwvNTRP5J6jHafj4-2" target="GhQ1ud3WlhMWC2dmbdbF-36" edge="1">
          <mxGeometry relative="1" as="geometry" />
        </mxCell>
        <mxCell id="Bpe3rEJzs9Y-r7ETdOp8-8" style="rounded=0;orthogonalLoop=1;jettySize=auto;html=1;" parent="1" source="Dbd8FwvNTRP5J6jHafj4-2" target="Dbd8FwvNTRP5J6jHafj4-1" edge="1">
          <mxGeometry relative="1" as="geometry" />
        </mxCell>
        <mxCell id="Dbd8FwvNTRP5J6jHafj4-2" value="proprietario" style="shape=umlActor;verticalLabelPosition=bottom;verticalAlign=top;html=1;outlineConnect=0;fillColor=#f8cecc;strokeColor=#b85450;gradientColor=#ea6b66;" parent="1" vertex="1">
          <mxGeometry x="-754.25" y="-812.5" width="30" height="60" as="geometry" />
        </mxCell>
        <mxCell id="Dbd8FwvNTRP5J6jHafj4-12" value="Conta &lt;br&gt;Comum" style="ellipse;whiteSpace=wrap;html=1;fillColor=#dae8fc;gradientColor=#7ea6e0;strokeColor=#6c8ebf;" parent="1" vertex="1">
          <mxGeometry x="-504.25" y="-493.75" width="100" height="60" as="geometry" />
        </mxCell>
        <mxCell id="Dbd8FwvNTRP5J6jHafj4-14" value="Conta &lt;br&gt;Proprietário" style="ellipse;whiteSpace=wrap;html=1;fillColor=#f8cecc;gradientColor=#ea6b66;strokeColor=#b85450;" parent="1" vertex="1">
          <mxGeometry x="-359.25" y="-496.25" width="100" height="60" as="geometry" />
        </mxCell>
        <mxCell id="Bpe3rEJzs9Y-r7ETdOp8-5" value="" style="edgeStyle=orthogonalEdgeStyle;rounded=0;orthogonalLoop=1;jettySize=auto;html=1;dashed=1;startArrow=classic;startFill=1;endArrow=none;" parent="1" source="Dbd8FwvNTRP5J6jHafj4-21" target="GhQ1ud3WlhMWC2dmbdbF-23" edge="1">
          <mxGeometry relative="1" as="geometry" />
        </mxCell>
        <mxCell id="Dbd8FwvNTRP5J6jHafj4-21" value="Rastrear Encomenda" style="ellipse;whiteSpace=wrap;html=1;fillColor=#dae8fc;gradientColor=#7ea6e0;strokeColor=#6c8ebf;" parent="1" vertex="1">
          <mxGeometry x="-362.25" y="-320" width="100" height="60" as="geometry" />
        </mxCell>
        <mxCell id="Dbd8FwvNTRP5J6jHafj4-30" value="&amp;nbsp;Visualizar Embarcações" style="ellipse;whiteSpace=wrap;html=1;fillColor=#dae8fc;strokeColor=#6c8ebf;gradientColor=#7ea6e0;" parent="1" vertex="1">
          <mxGeometry x="-554.25" y="-412.5" width="100" height="60" as="geometry" />
        </mxCell>
        <mxCell id="e4peXhRiPMKvvh6ofRs6-1" value="Cadastrar Embarcação" style="ellipse;whiteSpace=wrap;html=1;fillColor=#f8cecc;strokeColor=#b85450;gradientColor=#ea6b66;" parent="1" vertex="1">
          <mxGeometry x="-525.75" y="-850" width="103" height="61" as="geometry" />
        </mxCell>
        <mxCell id="Bpe3rEJzs9Y-r7ETdOp8-3" value="" style="edgeStyle=orthogonalEdgeStyle;rounded=0;orthogonalLoop=1;jettySize=auto;html=1;dashed=1;startArrow=classic;startFill=1;endArrow=none;" parent="1" source="e4peXhRiPMKvvh6ofRs6-3" target="Dbd8FwvNTRP5J6jHafj4-21" edge="1">
          <mxGeometry relative="1" as="geometry" />
        </mxCell>
        <mxCell id="e4peXhRiPMKvvh6ofRs6-3" value="Receber&lt;br&gt;Codigo da Encomenda" style="ellipse;whiteSpace=wrap;html=1;fillColor=#dae8fc;strokeColor=#6c8ebf;gradientColor=#7ea6e0;" parent="1" vertex="1">
          <mxGeometry x="-584.25" y="-320" width="100" height="60" as="geometry" />
        </mxCell>
        <mxCell id="e4peXhRiPMKvvh6ofRs6-4" value="Atualizar Status da Encomenda" style="ellipse;whiteSpace=wrap;html=1;fillColor=#e6d0de;strokeColor=#996185;gradientColor=#d5739d;" parent="1" vertex="1">
          <mxGeometry x="-104.25" y="-627.5" width="100" height="60" as="geometry" />
        </mxCell>
        <mxCell id="GhQ1ud3WlhMWC2dmbdbF-14" style="rounded=0;orthogonalLoop=1;jettySize=auto;html=1;exitX=1;exitY=0.3333333333333333;exitDx=0;exitDy=0;exitPerimeter=0;entryX=0;entryY=0.5;entryDx=0;entryDy=0;" parent="1" source="e4peXhRiPMKvvh6ofRs6-9" target="Dbd8FwvNTRP5J6jHafj4-1" edge="1">
          <mxGeometry relative="1" as="geometry" />
        </mxCell>
        <mxCell id="GhQ1ud3WlhMWC2dmbdbF-33" style="rounded=0;orthogonalLoop=1;jettySize=auto;html=1;" parent="1" source="e4peXhRiPMKvvh6ofRs6-9" target="Dbd8FwvNTRP5J6jHafj4-30" edge="1">
          <mxGeometry relative="1" as="geometry" />
        </mxCell>
        <mxCell id="Bpe3rEJzs9Y-r7ETdOp8-2" style="rounded=0;orthogonalLoop=1;jettySize=auto;html=1;" parent="1" source="e4peXhRiPMKvvh6ofRs6-9" target="e4peXhRiPMKvvh6ofRs6-3" edge="1">
          <mxGeometry relative="1" as="geometry" />
        </mxCell>
        <mxCell id="e4peXhRiPMKvvh6ofRs6-9" value="Usuario Comum" style="shape=umlActor;verticalLabelPosition=bottom;verticalAlign=top;html=1;outlineConnect=0;fillColor=#dae8fc;strokeColor=#6c8ebf;gradientColor=#7ea6e0;" parent="1" vertex="1">
          <mxGeometry x="-754.25" y="-553.5" width="30" height="60" as="geometry" />
        </mxCell>
        <mxCell id="GhQ1ud3WlhMWC2dmbdbF-18" value="Consultar &lt;br&gt;Lista de Encomendas" style="ellipse;whiteSpace=wrap;html=1;fillColor=#e6d0de;gradientColor=#d5739d;strokeColor=#996185;" parent="1" vertex="1">
          <mxGeometry x="-104.25" y="-732.5" width="100" height="60" as="geometry" />
        </mxCell>
        <mxCell id="GhQ1ud3WlhMWC2dmbdbF-23" value="Receber Confirmação de Entrega" style="ellipse;whiteSpace=wrap;html=1;fillColor=#dae8fc;gradientColor=#7ea6e0;strokeColor=#6c8ebf;" parent="1" vertex="1">
          <mxGeometry x="-159.25" y="-321" width="110" height="61" as="geometry" />
        </mxCell>
        <mxCell id="GhQ1ud3WlhMWC2dmbdbF-36" value="&amp;nbsp;Visualizar Embarcações do Proprietario" style="ellipse;whiteSpace=wrap;html=1;fillColor=#f8cecc;gradientColor=#ea6b66;strokeColor=#b85450;" parent="1" vertex="1">
          <mxGeometry x="-534.25" y="-762.5" width="120" height="70" as="geometry" />
        </mxCell>
        <mxCell id="Bpe3rEJzs9Y-r7ETdOp8-17" value="" style="edgeStyle=orthogonalEdgeStyle;rounded=0;orthogonalLoop=1;jettySize=auto;html=1;dashed=1;startArrow=classic;startFill=1;endArrow=none;" parent="1" source="GhQ1ud3WlhMWC2dmbdbF-38" target="Bpe3rEJzs9Y-r7ETdOp8-16" edge="1">
          <mxGeometry relative="1" as="geometry" />
        </mxCell>
        <mxCell id="GhQ1ud3WlhMWC2dmbdbF-38" value="Cadastrar Encomendas" style="ellipse;whiteSpace=wrap;html=1;fillColor=#e6d0de;gradientColor=#d5739d;strokeColor=#996185;" parent="1" vertex="1">
          <mxGeometry x="-114.25" y="-832.5" width="100" height="60" as="geometry" />
        </mxCell>
        <mxCell id="GhQ1ud3WlhMWC2dmbdbF-45" value="Setor de&amp;nbsp;&lt;div&gt;Encomenda&lt;/div&gt;" style="shape=umlActor;verticalLabelPosition=bottom;verticalAlign=top;html=1;outlineConnect=0;fillColor=#e6d0de;strokeColor=#996185;gradientColor=#d5739d;" parent="1" vertex="1">
          <mxGeometry x="-262.25" y="-720" width="30" height="60" as="geometry" />
        </mxCell>
        <mxCell id="GhQ1ud3WlhMWC2dmbdbF-55" value="" style="endArrow=none;html=1;rounded=0;dashed=1;startArrow=classic;startFill=1;" parent="1" source="e4peXhRiPMKvvh6ofRs6-1" target="GhQ1ud3WlhMWC2dmbdbF-45" edge="1">
          <mxGeometry width="50" height="50" relative="1" as="geometry">
            <mxPoint x="157.75" y="-592.5" as="sourcePoint" />
            <mxPoint x="217.75" y="-592.5" as="targetPoint" />
          </mxGeometry>
        </mxCell>
        <mxCell id="GhQ1ud3WlhMWC2dmbdbF-56" value="" style="endArrow=classic;html=1;rounded=0;" parent="1" source="GhQ1ud3WlhMWC2dmbdbF-45" target="GhQ1ud3WlhMWC2dmbdbF-18" edge="1">
          <mxGeometry width="50" height="50" relative="1" as="geometry">
            <mxPoint x="-222.25" y="-705" as="sourcePoint" />
            <mxPoint x="-142.25" y="-765" as="targetPoint" />
          </mxGeometry>
        </mxCell>
        <mxCell id="GhQ1ud3WlhMWC2dmbdbF-57" value="" style="endArrow=classic;html=1;rounded=0;" parent="1" source="GhQ1ud3WlhMWC2dmbdbF-45" target="GhQ1ud3WlhMWC2dmbdbF-38" edge="1">
          <mxGeometry width="50" height="50" relative="1" as="geometry">
            <mxPoint x="-222.25" y="-695" as="sourcePoint" />
            <mxPoint x="-102.25" y="-695" as="targetPoint" />
          </mxGeometry>
        </mxCell>
        <mxCell id="GhQ1ud3WlhMWC2dmbdbF-59" value="" style="endArrow=classic;html=1;rounded=0;" parent="1" target="e4peXhRiPMKvvh6ofRs6-4" edge="1">
          <mxGeometry width="50" height="50" relative="1" as="geometry">
            <mxPoint x="-229.25" y="-672.5" as="sourcePoint" />
            <mxPoint x="-119.25" y="-614.37" as="targetPoint" />
          </mxGeometry>
        </mxCell>
        <mxCell id="Bpe3rEJzs9Y-r7ETdOp8-1" value="" style="group" parent="1" vertex="1" connectable="0">
          <mxGeometry x="-434.25" y="-542.75" width="100" height="50" as="geometry" />
        </mxCell>
        <mxCell id="Dbd8FwvNTRP5J6jHafj4-10" value="" style="endArrow=block;endSize=16;endFill=0;html=1;rounded=0;" parent="Bpe3rEJzs9Y-r7ETdOp8-1" target="Dbd8FwvNTRP5J6jHafj4-1" edge="1">
          <mxGeometry width="160" relative="1" as="geometry">
            <mxPoint x="50" y="5" as="sourcePoint" />
            <mxPoint x="49.690000000000055" y="7.5" as="targetPoint" />
          </mxGeometry>
        </mxCell>
        <mxCell id="Dbd8FwvNTRP5J6jHafj4-15" value="" style="strokeWidth=1;html=1;shape=mxgraph.flowchart.annotation_2;align=left;labelPosition=right;pointerEvents=1;rotation=90;" parent="Bpe3rEJzs9Y-r7ETdOp8-1" vertex="1">
          <mxGeometry x="25" y="-25" width="50" height="100" as="geometry" />
        </mxCell>
        <mxCell id="Bpe3rEJzs9Y-r7ETdOp8-4" value="&amp;lt;&amp;lt;extends&amp;gt;&amp;gt;" style="text;html=1;align=center;verticalAlign=middle;whiteSpace=wrap;rounded=0;" parent="1" vertex="1">
          <mxGeometry x="-454.25" y="-312.5" width="60" height="30" as="geometry" />
        </mxCell>
        <mxCell id="Bpe3rEJzs9Y-r7ETdOp8-6" value="&amp;lt;&amp;lt;extends&amp;gt;&amp;gt;" style="text;html=1;align=center;verticalAlign=middle;whiteSpace=wrap;rounded=0;rotation=0;" parent="1" vertex="1">
          <mxGeometry x="-239.25" y="-312.5" width="60" height="30" as="geometry" />
        </mxCell>
        <mxCell id="Bpe3rEJzs9Y-r7ETdOp8-7" value="&amp;lt;&amp;lt;extends&amp;gt;&amp;gt;" style="text;html=1;align=center;verticalAlign=middle;whiteSpace=wrap;rounded=0;rotation=0;" parent="1" vertex="1">
          <mxGeometry x="4.75" y="-829.5" width="60" height="30" as="geometry" />
        </mxCell>
        <mxCell id="Bpe3rEJzs9Y-r7ETdOp8-16" value="Enviar Código para o Usuario" style="ellipse;whiteSpace=wrap;html=1;fillColor=#e6d0de;gradientColor=#d5739d;strokeColor=#996185;" parent="1" vertex="1">
          <mxGeometry x="75.75" y="-832.5" width="100" height="60" as="geometry" />
        </mxCell>
        <mxCell id="Bpe3rEJzs9Y-r7ETdOp8-19" value="&amp;lt;&amp;lt;extends&amp;gt;&amp;gt;" style="text;html=1;align=center;verticalAlign=middle;whiteSpace=wrap;rounded=0;rotation=30;" parent="1" vertex="1">
          <mxGeometry x="-375.25" y="-772.5" width="60" height="30" as="geometry" />
        </mxCell>
        <mxCell id="onvot0BCNDvt1o7FQSmW-1" value="Uma aplicação de rastreio de encomenda por embarcação&amp;nbsp;" style="text;html=1;align=center;verticalAlign=middle;whiteSpace=wrap;rounded=0;shadow=1;" vertex="1" parent="1">
          <mxGeometry x="470" y="-940" width="180" height="30" as="geometry" />
        </mxCell>
        <mxCell id="onvot0BCNDvt1o7FQSmW-2" value="Nome: CapDex" style="text;html=1;align=center;verticalAlign=middle;whiteSpace=wrap;rounded=0;" vertex="1" parent="1">
          <mxGeometry x="514" y="-910" width="92" height="30" as="geometry" />
        </mxCell>
        <mxCell id="onvot0BCNDvt1o7FQSmW-3" value="Status: V2 Concluído" style="text;html=1;align=center;verticalAlign=middle;whiteSpace=wrap;rounded=0;" vertex="1" parent="1">
          <mxGeometry x="472.5" y="-870" width="175" height="30" as="geometry" />
        </mxCell>
        <mxCell id="onvot0BCNDvt1o7FQSmW-4" value="CASO DE USO 001: Geral" style="text;html=1;align=center;verticalAlign=middle;whiteSpace=wrap;rounded=0;fillColor=#f5f5f5;fontColor=#333333;strokeColor=#666666;" vertex="1" parent="1">
          <mxGeometry x="980" y="-870" width="181" height="30" as="geometry" />
        </mxCell>
        <mxCell id="onvot0BCNDvt1o7FQSmW-5" value="&lt;b&gt;UC001&lt;/b&gt; - &lt;br&gt;Criar Conta" style="ellipse;whiteSpace=wrap;html=1;fillColor=#f5f5f5;gradientColor=#b3b3b3;strokeColor=#666666;" vertex="1" parent="1">
          <mxGeometry x="999.5" y="-513.25" width="100" height="60" as="geometry" />
        </mxCell>
        <mxCell id="onvot0BCNDvt1o7FQSmW-6" style="rounded=0;orthogonalLoop=1;jettySize=auto;html=1;" edge="1" parent="1" source="onvot0BCNDvt1o7FQSmW-9" target="onvot0BCNDvt1o7FQSmW-15">
          <mxGeometry relative="1" as="geometry" />
        </mxCell>
        <mxCell id="onvot0BCNDvt1o7FQSmW-7" style="rounded=0;orthogonalLoop=1;jettySize=auto;html=1;" edge="1" parent="1" source="onvot0BCNDvt1o7FQSmW-9" target="onvot0BCNDvt1o7FQSmW-25">
          <mxGeometry relative="1" as="geometry" />
        </mxCell>
        <mxCell id="onvot0BCNDvt1o7FQSmW-8" style="rounded=0;orthogonalLoop=1;jettySize=auto;html=1;" edge="1" parent="1" source="onvot0BCNDvt1o7FQSmW-9" target="onvot0BCNDvt1o7FQSmW-5">
          <mxGeometry relative="1" as="geometry" />
        </mxCell>
        <mxCell id="onvot0BCNDvt1o7FQSmW-9" value="proprietario" style="shape=umlActor;verticalLabelPosition=bottom;verticalAlign=top;html=1;outlineConnect=0;fillColor=#f8cecc;strokeColor=#b85450;gradientColor=#ea6b66;" vertex="1" parent="1">
          <mxGeometry x="679.5" y="-692.5" width="30" height="60" as="geometry" />
        </mxCell>
        <mxCell id="onvot0BCNDvt1o7FQSmW-10" value="Conta &lt;br&gt;Comum" style="ellipse;whiteSpace=wrap;html=1;fillColor=#dae8fc;gradientColor=#7ea6e0;strokeColor=#6c8ebf;" vertex="1" parent="1">
          <mxGeometry x="929.5" y="-373.75" width="100" height="60" as="geometry" />
        </mxCell>
        <mxCell id="onvot0BCNDvt1o7FQSmW-11" value="Conta &lt;br&gt;Proprietário" style="ellipse;whiteSpace=wrap;html=1;fillColor=#f8cecc;gradientColor=#ea6b66;strokeColor=#b85450;" vertex="1" parent="1">
          <mxGeometry x="1074.5" y="-376.25" width="100" height="60" as="geometry" />
        </mxCell>
        <mxCell id="onvot0BCNDvt1o7FQSmW-12" value="" style="edgeStyle=orthogonalEdgeStyle;rounded=0;orthogonalLoop=1;jettySize=auto;html=1;dashed=1;startArrow=classic;startFill=1;endArrow=none;" edge="1" parent="1" source="onvot0BCNDvt1o7FQSmW-13" target="onvot0BCNDvt1o7FQSmW-24">
          <mxGeometry relative="1" as="geometry" />
        </mxCell>
        <mxCell id="onvot0BCNDvt1o7FQSmW-13" value="Rastrear Encomenda" style="ellipse;whiteSpace=wrap;html=1;fillColor=#dae8fc;gradientColor=#7ea6e0;strokeColor=#6c8ebf;" vertex="1" parent="1">
          <mxGeometry x="1071.5" y="-200" width="100" height="60" as="geometry" />
        </mxCell>
        <mxCell id="onvot0BCNDvt1o7FQSmW-14" value="&amp;nbsp;Visualizar Embarcações" style="ellipse;whiteSpace=wrap;html=1;fillColor=#dae8fc;strokeColor=#6c8ebf;gradientColor=#7ea6e0;" vertex="1" parent="1">
          <mxGeometry x="879.5" y="-292.5" width="100" height="60" as="geometry" />
        </mxCell>
        <mxCell id="onvot0BCNDvt1o7FQSmW-15" value="&lt;b&gt;UC002&lt;/b&gt; -&amp;nbsp;&lt;br&gt;Cadastrar Embarcação" style="ellipse;whiteSpace=wrap;html=1;fillColor=#f8cecc;strokeColor=#b85450;gradientColor=#ea6b66;" vertex="1" parent="1">
          <mxGeometry x="908" y="-730" width="103" height="61" as="geometry" />
        </mxCell>
        <mxCell id="onvot0BCNDvt1o7FQSmW-16" value="" style="edgeStyle=orthogonalEdgeStyle;rounded=0;orthogonalLoop=1;jettySize=auto;html=1;dashed=1;startArrow=classic;startFill=1;endArrow=none;" edge="1" parent="1" source="onvot0BCNDvt1o7FQSmW-17" target="onvot0BCNDvt1o7FQSmW-13">
          <mxGeometry relative="1" as="geometry" />
        </mxCell>
        <mxCell id="onvot0BCNDvt1o7FQSmW-17" value="Receber&lt;br&gt;Codigo da Encomenda" style="ellipse;whiteSpace=wrap;html=1;fillColor=#dae8fc;strokeColor=#6c8ebf;gradientColor=#7ea6e0;" vertex="1" parent="1">
          <mxGeometry x="849.5" y="-200" width="100" height="60" as="geometry" />
        </mxCell>
        <mxCell id="onvot0BCNDvt1o7FQSmW-18" value="Atualizar Status da Encomenda" style="ellipse;whiteSpace=wrap;html=1;fillColor=#e6d0de;strokeColor=#996185;gradientColor=#d5739d;" vertex="1" parent="1">
          <mxGeometry x="1329.5" y="-507.5" width="100" height="60" as="geometry" />
        </mxCell>
        <mxCell id="onvot0BCNDvt1o7FQSmW-19" style="rounded=0;orthogonalLoop=1;jettySize=auto;html=1;exitX=1;exitY=0.3333333333333333;exitDx=0;exitDy=0;exitPerimeter=0;entryX=0;entryY=0.5;entryDx=0;entryDy=0;" edge="1" parent="1" source="onvot0BCNDvt1o7FQSmW-22" target="onvot0BCNDvt1o7FQSmW-5">
          <mxGeometry relative="1" as="geometry" />
        </mxCell>
        <mxCell id="onvot0BCNDvt1o7FQSmW-20" style="rounded=0;orthogonalLoop=1;jettySize=auto;html=1;" edge="1" parent="1" source="onvot0BCNDvt1o7FQSmW-22" target="onvot0BCNDvt1o7FQSmW-14">
          <mxGeometry relative="1" as="geometry" />
        </mxCell>
        <mxCell id="onvot0BCNDvt1o7FQSmW-21" style="rounded=0;orthogonalLoop=1;jettySize=auto;html=1;" edge="1" parent="1" source="onvot0BCNDvt1o7FQSmW-22" target="onvot0BCNDvt1o7FQSmW-17">
          <mxGeometry relative="1" as="geometry" />
        </mxCell>
        <mxCell id="onvot0BCNDvt1o7FQSmW-22" value="Usuario Comum" style="shape=umlActor;verticalLabelPosition=bottom;verticalAlign=top;html=1;outlineConnect=0;fillColor=#dae8fc;strokeColor=#6c8ebf;gradientColor=#7ea6e0;" vertex="1" parent="1">
          <mxGeometry x="679.5" y="-433.5" width="30" height="60" as="geometry" />
        </mxCell>
        <mxCell id="onvot0BCNDvt1o7FQSmW-23" value="Consultar &lt;br&gt;Lista de Encomendas" style="ellipse;whiteSpace=wrap;html=1;fillColor=#e6d0de;gradientColor=#d5739d;strokeColor=#996185;" vertex="1" parent="1">
          <mxGeometry x="1329.5" y="-612.5" width="100" height="60" as="geometry" />
        </mxCell>
        <mxCell id="onvot0BCNDvt1o7FQSmW-24" value="Receber Confirmação de Entrega" style="ellipse;whiteSpace=wrap;html=1;fillColor=#dae8fc;gradientColor=#7ea6e0;strokeColor=#6c8ebf;" vertex="1" parent="1">
          <mxGeometry x="1274.5" y="-201" width="110" height="61" as="geometry" />
        </mxCell>
        <mxCell id="onvot0BCNDvt1o7FQSmW-25" value="&amp;nbsp;Visualizar Embarcações do Proprietario" style="ellipse;whiteSpace=wrap;html=1;fillColor=#f8cecc;gradientColor=#ea6b66;strokeColor=#b85450;" vertex="1" parent="1">
          <mxGeometry x="899.5" y="-642.5" width="120" height="70" as="geometry" />
        </mxCell>
        <mxCell id="onvot0BCNDvt1o7FQSmW-26" value="" style="edgeStyle=orthogonalEdgeStyle;rounded=0;orthogonalLoop=1;jettySize=auto;html=1;dashed=1;startArrow=classic;startFill=1;endArrow=none;" edge="1" parent="1" source="onvot0BCNDvt1o7FQSmW-27" target="onvot0BCNDvt1o7FQSmW-39">
          <mxGeometry relative="1" as="geometry" />
        </mxCell>
        <mxCell id="onvot0BCNDvt1o7FQSmW-27" value="Cadastrar Encomendas" style="ellipse;whiteSpace=wrap;html=1;fillColor=#e6d0de;gradientColor=#d5739d;strokeColor=#996185;" vertex="1" parent="1">
          <mxGeometry x="1319.5" y="-712.5" width="100" height="60" as="geometry" />
        </mxCell>
        <mxCell id="onvot0BCNDvt1o7FQSmW-28" value="Setor de&amp;nbsp;&lt;div&gt;Encomenda&lt;/div&gt;" style="shape=umlActor;verticalLabelPosition=bottom;verticalAlign=top;html=1;outlineConnect=0;fillColor=#e6d0de;strokeColor=#996185;gradientColor=#d5739d;" vertex="1" parent="1">
          <mxGeometry x="1171.5" y="-600" width="30" height="60" as="geometry" />
        </mxCell>
        <mxCell id="onvot0BCNDvt1o7FQSmW-29" value="" style="endArrow=none;html=1;rounded=0;dashed=1;startArrow=classic;startFill=1;" edge="1" parent="1" source="onvot0BCNDvt1o7FQSmW-15" target="onvot0BCNDvt1o7FQSmW-28">
          <mxGeometry width="50" height="50" relative="1" as="geometry">
            <mxPoint x="1591.5" y="-472.5" as="sourcePoint" />
            <mxPoint x="1651.5" y="-472.5" as="targetPoint" />
          </mxGeometry>
        </mxCell>
        <mxCell id="onvot0BCNDvt1o7FQSmW-30" value="" style="endArrow=classic;html=1;rounded=0;" edge="1" parent="1" source="onvot0BCNDvt1o7FQSmW-28" target="onvot0BCNDvt1o7FQSmW-23">
          <mxGeometry width="50" height="50" relative="1" as="geometry">
            <mxPoint x="1211.5" y="-585" as="sourcePoint" />
            <mxPoint x="1291.5" y="-645" as="targetPoint" />
          </mxGeometry>
        </mxCell>
        <mxCell id="onvot0BCNDvt1o7FQSmW-31" value="" style="endArrow=classic;html=1;rounded=0;" edge="1" parent="1" source="onvot0BCNDvt1o7FQSmW-28" target="onvot0BCNDvt1o7FQSmW-27">
          <mxGeometry width="50" height="50" relative="1" as="geometry">
            <mxPoint x="1211.5" y="-575" as="sourcePoint" />
            <mxPoint x="1331.5" y="-575" as="targetPoint" />
          </mxGeometry>
        </mxCell>
        <mxCell id="onvot0BCNDvt1o7FQSmW-32" value="" style="endArrow=classic;html=1;rounded=0;" edge="1" parent="1" target="onvot0BCNDvt1o7FQSmW-18">
          <mxGeometry width="50" height="50" relative="1" as="geometry">
            <mxPoint x="1204.5" y="-552.5" as="sourcePoint" />
            <mxPoint x="1314.5" y="-494.37" as="targetPoint" />
          </mxGeometry>
        </mxCell>
        <mxCell id="onvot0BCNDvt1o7FQSmW-33" value="" style="group" vertex="1" connectable="0" parent="1">
          <mxGeometry x="999.5" y="-422.75" width="100" height="50" as="geometry" />
        </mxCell>
        <mxCell id="onvot0BCNDvt1o7FQSmW-34" value="" style="endArrow=block;endSize=16;endFill=0;html=1;rounded=0;" edge="1" parent="onvot0BCNDvt1o7FQSmW-33" target="onvot0BCNDvt1o7FQSmW-5">
          <mxGeometry width="160" relative="1" as="geometry">
            <mxPoint x="50" y="5" as="sourcePoint" />
            <mxPoint x="49.690000000000055" y="7.5" as="targetPoint" />
          </mxGeometry>
        </mxCell>
        <mxCell id="onvot0BCNDvt1o7FQSmW-35" value="" style="strokeWidth=1;html=1;shape=mxgraph.flowchart.annotation_2;align=left;labelPosition=right;pointerEvents=1;rotation=90;" vertex="1" parent="onvot0BCNDvt1o7FQSmW-33">
          <mxGeometry x="25" y="-25" width="50" height="100" as="geometry" />
        </mxCell>
        <mxCell id="onvot0BCNDvt1o7FQSmW-36" value="&amp;lt;&amp;lt;extends&amp;gt;&amp;gt;" style="text;html=1;align=center;verticalAlign=middle;whiteSpace=wrap;rounded=0;" vertex="1" parent="1">
          <mxGeometry x="979.5" y="-192.5" width="60" height="30" as="geometry" />
        </mxCell>
        <mxCell id="onvot0BCNDvt1o7FQSmW-37" value="&amp;lt;&amp;lt;extends&amp;gt;&amp;gt;" style="text;html=1;align=center;verticalAlign=middle;whiteSpace=wrap;rounded=0;rotation=0;" vertex="1" parent="1">
          <mxGeometry x="1194.5" y="-192.5" width="60" height="30" as="geometry" />
        </mxCell>
        <mxCell id="onvot0BCNDvt1o7FQSmW-38" value="&amp;lt;&amp;lt;extends&amp;gt;&amp;gt;" style="text;html=1;align=center;verticalAlign=middle;whiteSpace=wrap;rounded=0;rotation=0;" vertex="1" parent="1">
          <mxGeometry x="1438.5" y="-709.5" width="60" height="30" as="geometry" />
        </mxCell>
        <mxCell id="onvot0BCNDvt1o7FQSmW-39" value="Enviar Código para o Usuario" style="ellipse;whiteSpace=wrap;html=1;fillColor=#e6d0de;gradientColor=#d5739d;strokeColor=#996185;" vertex="1" parent="1">
          <mxGeometry x="1509.5" y="-712.5" width="100" height="60" as="geometry" />
        </mxCell>
        <mxCell id="onvot0BCNDvt1o7FQSmW-40" value="&amp;lt;&amp;lt;extends&amp;gt;&amp;gt;" style="text;html=1;align=center;verticalAlign=middle;whiteSpace=wrap;rounded=0;rotation=30;" vertex="1" parent="1">
          <mxGeometry x="1058.5" y="-652.5" width="60" height="30" as="geometry" />
        </mxCell>
      </root>
    </mxGraphModel>
  </diagram>
</mxfile>
